<?xml version="1.0" standalone="no"?>
<svg viewBox="0 0 200 200" xmlns="http://www.w3.org/2000/svg">
  <path fill="#FF0066" d="M39.1,-63.1C52.1,-60.2,65.1,-52.6,72.2,-41.3C79.2,-30.1,80.4,-15,69.3,-6.4C58.3,2.3,35,4.5,24.7,10.2C14.4,15.9,17.1,25.1,15.1,34.1C13.2,43.1,6.6,51.9,-3.1,57.3C-12.8,62.7,-25.6,64.7,-28.1,56C-30.6,47.3,-22.7,27.9,-30,16.8C-37.2,5.7,-59.6,2.9,-66.9,-4.2C-74.1,-11.2,-66.1,-22.4,-56.6,-29.6C-47,-36.7,-35.9,-39.8,-26.2,-44.6C-16.5,-49.4,-8.3,-55.9,2.4,-60C13,-64.1,26.1,-65.9,39.1,-63.1Z" transform="translate(100 100)" />
</svg>
